<?xml version="1.0" encoding="UTF-8"?>
<svg version="1.1" xmlns="http://www.w3.org/2000/svg" width="635" height="603">
<path d="M0 0 C1.42129715 -0.00101212 1.42129715 -0.00101212 2.87130737 -0.00204468 C92.02299037 0.09827429 173.0047206 35.88850081 236.25 97.8125 C240.5457642 102.15178135 244.46583911 106.68035005 248.265625 111.45703125 C250.55473871 114.31842339 252.92850025 117.09240157 255.3125 119.875 C265.71200145 132.38337868 274.3933839 145.84620008 282.27880859 160.05419922 C283.37525582 162.02569989 284.49124309 163.98441286 285.61328125 165.94140625 C306.07573245 202.24885488 318.49863412 246.94388427 318.703125 288.62890625 C318.71018463 289.5905217 318.71724426 290.55213715 318.72451782 291.54289246 C319.13044435 363.09158964 299.69574192 430.2395078 253.5 486.25 C253.0575293 486.79253418 252.61505859 487.33506836 252.15917969 487.89404297 C245.1768819 496.40416952 237.63071446 504.31781412 229.875 512.125 C229.01672607 512.99253906 228.15845215 513.86007812 227.27416992 514.75390625 C221.32429176 520.67488225 215.06044117 526.02066283 208.5 531.25 C207.24500589 532.28617463 205.99207689 533.32486097 204.7421875 534.3671875 C195.77532369 541.75212424 186.400115 548.18290897 176.5 554.25 C175.79053223 554.68586426 175.08106445 555.12172852 174.35009766 555.57080078 C165.00099675 561.27739484 155.4907505 566.54285993 145.59863281 571.24804688 C144.19021404 571.92047017 142.78592049 572.60159758 141.38574219 573.29101562 C102.58467706 592.3517993 57.49265824 603.25312766 14.3046875 603.453125 C12.77045639 603.46364647 12.77045639 603.46364647 11.20523071 603.47438049 C7.92844167 603.49176214 4.65183343 603.49823149 1.375 603.5 C-0.30589722 603.50101212 -0.30589722 603.50101212 -2.02075195 603.50204468 C-18.39211601 603.48637171 -34.33669298 603.07094155 -50.5 600.25 C-52.06451904 599.99259033 -52.06451904 599.99259033 -53.66064453 599.72998047 C-107.90941589 590.69524686 -159.44070105 568.54010266 -202.5 534.25 C-203.48226562 533.48171875 -204.46453125 532.7134375 -205.4765625 531.921875 C-221.88756344 518.85116629 -237.58848792 503.79417223 -250.5 487.25 C-251.57973065 485.90935145 -252.66054285 484.56957354 -253.7421875 483.23046875 C-262.16606289 472.71551904 -269.6687736 461.861952 -276.5 450.25 C-276.99741699 449.4048584 -277.49483398 448.5597168 -278.00732422 447.68896484 C-298.10894437 413.1100455 -310.72542692 374.93760612 -315.5 335.25 C-315.59571289 334.49581787 -315.69142578 333.74163574 -315.79003906 332.96459961 C-318.59993152 307.3860176 -317.95737049 279.56949264 -313.5 254.25 C-313.31195801 253.16009766 -313.12391602 252.07019531 -312.93017578 250.94726562 C-308.43407978 225.8091887 -300.70286834 201.22044339 -289.5 178.25 C-288.85930096 176.90237895 -288.21867627 175.55472254 -287.578125 174.20703125 C-275.14723698 148.40105799 -258.76014526 125.38265938 -239.5 104.25 C-238.7575 103.4146875 -238.015 102.579375 -237.25 101.71875 C-229.81672966 93.35632086 -222.08632461 85.43252868 -213.5 78.25 C-212.96020508 77.79641113 -212.42041016 77.34282227 -211.86425781 76.87548828 C-152.13529111 26.87764537 -77.86685265 0.05007624 0 0 Z " fill="#F4F4F8" transform="translate(316.5,-0.25)"/>
<path d="M0 0 C1.03707092 0.00415421 1.03707092 0.00415421 2.09509277 0.00839233 C21.12903972 0.09716498 39.66874324 2.19651463 58.4375 5.25 C58.4375 5.91 58.4375 6.57 58.4375 7.25 C59.448125 7.3325 60.45875 7.415 61.5 7.5 C68.28690284 8.32228298 74.86847306 10.41101459 81.4375 12.25 C81.4375 12.91 81.4375 13.57 81.4375 14.25 C82.05496094 14.34796875 82.67242187 14.4459375 83.30859375 14.546875 C92.1515196 16.10818307 99.09103704 19.27071551 106.57421875 24.14453125 C109.07237555 25.62666621 111.64619873 26.48239215 114.4375 27.25 C114.4375 27.91 114.4375 28.57 114.4375 29.25 C115.32195801 29.51337158 116.20641602 29.77674316 117.11767578 30.0480957 C120.34362479 31.21601356 122.73293052 32.55280083 125.5546875 34.48046875 C126.49183594 35.11919922 127.42898438 35.75792969 128.39453125 36.41601562 C129.35746094 37.08310547 130.32039063 37.75019531 131.3125 38.4375 C132.26769531 39.08525391 133.22289062 39.73300781 134.20703125 40.40039062 C139.96380332 44.35274237 145.28518963 48.54274686 150.4375 53.25 C151.76861373 54.41919849 153.10171681 55.58613912 154.4375 56.75 C155.09621094 57.32878906 155.75492187 57.90757812 156.43359375 58.50390625 C157.77033895 59.66867254 159.11679772 60.8223833 160.47265625 61.96484375 C165.28122844 66.05074035 169.39619695 70.41205404 173.4375 75.25 C174.58025391 76.57837891 174.58025391 76.57837891 175.74609375 77.93359375 C187.52346546 91.76879016 200.29817681 107.45225603 205.5859375 125.078125 C206.2899481 127.29994145 206.2899481 127.29994145 207.91796875 128.73046875 C209.91985786 130.73235786 210.47820554 132.63751224 211.375 135.3125 C212.61341195 138.90577102 213.90234035 142.43399518 215.375 145.9375 C219.14156109 155.27202097 222.30111522 165.06886515 224.0390625 174.98828125 C224.30426603 176.4937013 224.6116993 177.99229701 224.9609375 179.48046875 C226.14346567 184.59618845 226.68703426 189.66299453 226.98046875 194.8984375 C227.02238342 195.63770981 227.0642981 196.37698212 227.10748291 197.13865662 C227.5670573 205.86034331 227.68116491 214.57995364 227.6875 223.3125 C227.68817474 224.15973633 227.68884949 225.00697266 227.68954468 225.87988281 C227.67201502 239.81973058 227.19843532 253.54023928 224.4375 267.25 C224.21199463 268.38477783 224.21199463 268.38477783 223.98193359 269.54248047 C221.71706389 280.0060374 217.21727552 285.26478962 208.4375 291.25 C206.70058067 292.55944697 204.98450771 293.89318232 203.26953125 295.23120117 C201.64931992 296.4947899 200.01639272 297.7420241 198.3828125 298.98828125 C196.45320528 300.47003534 194.55042578 301.98755321 192.6796875 303.54296875 C190.4375 305.25 190.4375 305.25 188.4375 305.25 C190.19626062 298.11486545 192.44816285 291.3192575 195.15625 284.48828125 C195.5790625 283.41964844 196.001875 282.35101563 196.4375 281.25 C196.94023438 280.04472656 197.44296875 278.83945312 197.9609375 277.59765625 C199.92221952 272.34350478 200.69132743 266.89474942 201.5625 261.375 C201.89571515 259.31466204 202.23152054 257.25474078 202.5703125 255.1953125 C202.78518311 253.84203857 202.78518311 253.84203857 203.00439453 252.46142578 C203.4375 250.25 203.4375 250.25 204.4375 248.25 C205.78815746 240.07423457 205.66720663 231.69740884 205.6875 223.4375 C205.68983643 222.75968475 205.69217285 222.08186951 205.69458008 221.3835144 C205.70810457 210.9329264 204.92585329 200.83475352 203.09375 190.53515625 C202.37253337 186.38909974 202.32273396 182.45330632 202.4375 178.25 C201.7775 178.25 201.1175 178.25 200.4375 178.25 C200.36273437 177.6415625 200.28796875 177.033125 200.2109375 176.40625 C199.07151111 168.81007408 196.65979665 162.07096577 193.87109375 154.96484375 C192.80645113 152.20605592 191.88184505 149.52039888 191.0625 146.6875 C189.47901736 141.73673199 186.9031325 137.27019602 184.39306641 132.73999023 C182.78511171 129.83140456 181.35109467 127.03474908 180.109375 123.94140625 C177.98473531 118.83883493 174.76366675 114.3780766 171.6875 109.8125 C171.09195312 108.90951172 170.49640625 108.00652344 169.8828125 107.07617188 C166.53108234 102.06671371 163.02212298 97.40446748 158.97021484 92.93994141 C157.5299179 91.35189816 156.16559729 89.72490663 154.8125 88.0625 C143.72183529 74.9288181 129.72245717 64.49910614 115.33007812 55.28588867 C114.56888672 54.79193604 113.80769531 54.2979834 113.0234375 53.7890625 C112.3329834 53.34771973 111.6425293 52.90637695 110.93115234 52.45166016 C110.43824707 52.0551123 109.9453418 51.65856445 109.4375 51.25 C109.4375 50.59 109.4375 49.93 109.4375 49.25 C108.76847656 49.16234375 108.09945313 49.0746875 107.41015625 48.984375 C103.59685224 48.04232355 100.33067476 46.31076367 96.875 44.5 C86.8001906 39.36079489 76.71349138 35.16528518 65.8671875 31.94848633 C60.77051897 30.42748104 60.77051897 30.42748104 58.421875 29.17578125 C55.43980947 27.78454202 52.43722867 27.54626112 49.1875 27.125 C47.29257812 26.87363281 47.29257812 26.87363281 45.359375 26.6171875 C44.39515625 26.49601562 43.4309375 26.37484375 42.4375 26.25 C42.4375 25.59 42.4375 24.93 42.4375 24.25 C30.7484134 23.16053676 19.0700588 22.96476239 7.33740234 22.89990234 C5.17192773 22.88343608 3.00650532 22.85627158 0.84130859 22.81787109 C-24.08097214 22.38117107 -47.82907942 27.04408621 -70.7265625 37.01953125 C-72.58099073 37.82413854 -74.45093342 38.59411154 -76.3359375 39.32421875 C-91.14450023 45.10564393 -104.31391808 53.19691861 -116.5625 63.25 C-117.47773438 63.96285156 -118.39296875 64.67570312 -119.3359375 65.41015625 C-124.4432129 69.39015014 -129.08345369 73.58214143 -133.5625 78.25 C-135.97814287 80.68525036 -138.40556673 83.10018807 -140.88671875 85.46875 C-153.60862015 97.74906474 -163.87984267 112.49430483 -171.64257812 128.37280273 C-172.45481134 130.03024996 -173.30472382 131.66911743 -174.16015625 133.3046875 C-177.05385473 138.87602165 -179.38325514 144.19376074 -180.921875 150.2890625 C-181.5625 152.25 -181.5625 152.25 -183.5625 154.25 C-184.08807873 156.02310628 -184.53481239 157.82001203 -184.9375 159.625 C-186.19080673 164.93723919 -187.76685993 170.02850437 -189.59765625 175.16796875 C-200.27657006 209.2799647 -194.42013483 247.049803 -186.06567383 280.85595703 C-185.5625 283.25 -185.5625 283.25 -185.5625 286.25 C-184.9025 286.25 -184.2425 286.25 -183.5625 286.25 C-183.19898438 287.33796875 -182.83546875 288.4259375 -182.4609375 289.546875 C-179.71879117 297.60865642 -176.84059497 305.2403767 -172.76171875 312.734375 C-171.5567387 315.2620856 -170.98411444 317.49214554 -170.5625 320.25 C-169.9025 320.25 -169.2425 320.25 -168.5625 320.25 C-168.06621094 321.15621094 -167.56992188 322.06242187 -167.05859375 322.99609375 C-163.5295969 329.35651541 -159.97319976 335.38219322 -155.3515625 341.02734375 C-152.59025769 344.45787308 -150.09068461 348.07307412 -147.5546875 351.671875 C-145.40583317 354.45274531 -143.0838664 356.80140031 -140.5625 359.25 C-139.42076993 360.41039689 -138.28163178 361.5733474 -137.14453125 362.73828125 C-130.28871582 369.71376974 -123.50085858 376.49128434 -115.5625 382.25 C-114.58152344 382.96285156 -113.60054688 383.67570312 -112.58984375 384.41015625 C-99.38420994 393.76481544 -85.5516489 402.07799751 -70.5625 408.25 C-69.7375 408.600625 -68.9125 408.95125 -68.0625 409.3125 C-64.94373911 410.48203533 -61.77313854 411.36864824 -58.5625 412.25 C-58.5625 412.91 -58.5625 413.57 -58.5625 414.25 C-63.30663182 416.51424473 -68.16403206 417.08306938 -73.3125 417.8125 C-75.03699025 418.06012562 -76.76098473 418.31123761 -78.484375 418.56640625 C-79.62277832 418.72798218 -79.62277832 418.72798218 -80.78417969 418.89282227 C-82.57982462 419.08265157 -82.57982462 419.08265157 -83.5625 420.25 C-96.30915219 422.421354 -103.16702747 418.10658827 -113.5625 411.25 C-114.69365234 410.52103516 -114.69365234 410.52103516 -115.84765625 409.77734375 C-120.37584015 406.82703881 -124.7715917 403.70158101 -129.125 400.5 C-130.15753906 399.74203125 -131.19007813 398.9840625 -132.25390625 398.203125 C-133.01574219 397.55859375 -133.77757812 396.9140625 -134.5625 396.25 C-134.5625 395.59 -134.5625 394.93 -134.5625 394.25 C-135.23796875 394.05277344 -135.9134375 393.85554688 -136.609375 393.65234375 C-140.69137709 391.7139327 -143.56052403 388.91091044 -146.8125 385.8125 C-147.47636719 385.18649902 -148.14023438 384.56049805 -148.82421875 383.91552734 C-153.49146364 379.44502547 -157.65783902 374.81871597 -161.6328125 369.71875 C-163.48520311 367.34888995 -165.42681473 365.11094876 -167.4375 362.875 C-169.85643455 360.14951845 -171.75017099 357.42157576 -173.5625 354.25 C-174.2740625 353.5384375 -174.2740625 353.5384375 -175 352.8125 C-177.26250842 350.54999158 -178.82690386 347.93228494 -180.5625 345.25 C-181.614375 343.765 -181.614375 343.765 -182.6875 342.25 C-184.53900658 339.28758948 -185.60635484 336.59650806 -186.5625 333.25 C-187.2225 333.25 -187.8825 333.25 -188.5625 333.25 C-199.12210293 312.78396546 -199.12210293 312.78396546 -200.5625 304.25 C-201.2225 304.25 -201.8825 304.25 -202.5625 304.25 C-202.88863281 303.115625 -203.21476562 301.98125 -203.55078125 300.8125 C-203.9920244 299.29161934 -204.4334399 297.77078867 -204.875 296.25 C-205.08833984 295.50621094 -205.30167969 294.76242187 -205.52148438 293.99609375 C-206.5701375 290.39623975 -207.67703738 286.86779256 -209.04296875 283.375 C-212.48834382 274.32321233 -214.14375309 265.28878551 -215.1875 255.6875 C-215.42647969 253.560835 -215.66850787 251.43450961 -215.9140625 249.30859375 C-216.01541504 248.38361084 -216.11676758 247.45862793 -216.22119141 246.50561523 C-216.44821966 244.22159146 -216.44821966 244.22159146 -217.5625 242.25 C-217.67308461 239.91861622 -217.71701024 237.58396618 -217.73046875 235.25 C-217.73461288 234.54642868 -217.73875702 233.84285736 -217.74302673 233.1179657 C-217.75273234 230.8285912 -217.7526811 228.53939196 -217.75 226.25 C-217.75006042 225.47467926 -217.75012085 224.69935852 -217.75018311 223.90054321 C-217.73751166 212.55208144 -217.31506252 201.47848677 -215.5625 190.25 C-215.40652344 189.08339844 -215.25054687 187.91679687 -215.08984375 186.71484375 C-214.07349491 179.41250544 -212.52494147 172.35336719 -210.5625 165.25 C-210.2855127 164.24283936 -210.2855127 164.24283936 -210.00292969 163.21533203 C-205.84726924 148.22742903 -205.84726924 148.22742903 -202.6015625 141.51171875 C-200.72714898 137.43169834 -199.25808304 133.18542517 -197.7109375 128.97265625 C-196.5625 126.25 -196.5625 126.25 -194.5625 124.25 C-193.84699545 122.58327075 -193.13437791 120.91519427 -192.44189453 119.23876953 C-190.89410653 115.73841389 -188.94796377 112.47730148 -187 109.1875 C-186.56381348 108.44943115 -186.12762695 107.7113623 -185.67822266 106.95092773 C-179.29428463 96.30378262 -172.07256968 85.30237804 -163.5625 76.25 C-162.9025 76.25 -162.2425 76.25 -161.5625 76.25 C-161.315 75.67797852 -161.0675 75.10595703 -160.8125 74.51660156 C-159.36466142 71.89126302 -157.67893798 70.10742685 -155.5625 67.984375 C-154.35400391 66.77201172 -154.35400391 66.77201172 -153.12109375 65.53515625 C-152.27675781 64.69855469 -151.43242187 63.86195313 -150.5625 63 C-149.74910156 62.17886719 -148.93570313 61.35773438 -148.09765625 60.51171875 C-140.30216115 52.74085397 -131.92468783 45.97271988 -122.8125 39.8125 C-121.79941772 39.12317383 -121.79941772 39.12317383 -120.76586914 38.41992188 C-118.70304636 37.02237812 -116.63438633 35.63406566 -114.5625 34.25 C-113.91071777 33.81413574 -113.25893555 33.37827148 -112.58740234 32.92919922 C-106.41591565 28.82377116 -100.43755127 25.10158377 -93.5625 22.25 C-91.74305814 21.32604446 -89.93036916 20.38865966 -88.125 19.4375 C-71.27944716 10.99382339 -53.00155966 5.60597651 -34.2734375 3.609375 C-31.65112395 3.54130721 -31.65112395 3.54130721 -30.5625 2.25 C-20.39924228 0.36087304 -10.32537893 -0.07277633 0 0 Z " fill="#741FA8" transform="translate(322.5625,73.75)"/>
<path d="M0 0 C4.87326653 -0.35712488 8.02798552 -0.00508013 12.05859375 2.875 C15.80280878 6.12655515 19.19614006 9.2412341 20.0234375 14.34765625 C20.24802619 19.5850645 19.63176881 24.81323818 16.68359375 29.25 C14.19068336 31.30448443 11.57286295 32.82070122 8.68359375 34.25 C8.02359375 34.58 7.36359375 34.91 6.68359375 35.25 C5.80614502 35.23694824 4.92869629 35.22389648 4.0246582 35.21044922 C-2.82443424 35.14641526 -6.826467 35.93877916 -11.8984375 40.6953125 C-13.67371762 42.55876443 -15.41701699 44.45314991 -17.12890625 46.375 C-18.88328339 48.25459759 -20.63975896 50.13223897 -22.3984375 52.0078125 C-23.23238037 52.91096191 -24.06632324 53.81411133 -24.92553711 54.74462891 C-28.19132882 58.16682379 -31.6941168 61.21565591 -35.31640625 64.25 C-36.54383632 65.31782365 -37.7691213 66.38811831 -38.9921875 67.4609375 C-46.33185659 73.85393744 -53.73199241 80.14719258 -61.31640625 86.25 C-62.07566406 86.86746094 -62.83492187 87.48492187 -63.6171875 88.12109375 C-95.9388075 114.25 -95.9388075 114.25 -100.31640625 114.25 C-99.98334473 115.10811279 -99.6502832 115.96622559 -99.30712891 116.8503418 C-98.26645772 120.42139803 -98.22510003 122.95264254 -98.46484375 126.64453125 C-99.52688565 139.03144904 -99.52688565 139.03144904 -95.8203125 150.38476562 C-91.56170234 154.01033914 -86.58638754 155.63275037 -81.31640625 157.25 C-75.63526608 159.51624717 -70.53422589 162.34273438 -65.30273438 165.46484375 C-62.35612812 167.19205312 -59.71400637 168.69356921 -56.31640625 169.25 C-56.31640625 169.91 -56.31640625 170.57 -56.31640625 171.25 C-55.42953125 171.518125 -54.54265625 171.78625 -53.62890625 172.0625 C-50.51465366 173.17893017 -48.12687898 174.53629712 -45.31640625 176.25 C-43.00532432 177.31008323 -40.66555224 178.2748828 -38.31640625 179.25 C-37.65640625 179.58 -36.99640625 179.91 -36.31640625 180.25 C-36.37303185 178.69050377 -36.37303185 178.69050377 -36.43080139 177.09950256 C-36.77760965 167.23142506 -37.03126242 157.36460432 -37.19721317 147.4917841 C-37.28541522 142.4171232 -37.40468252 137.34743352 -37.59887695 132.27563477 C-38.99237883 94.93796833 -38.99237883 94.93796833 -30.30552673 85.16368103 C-21.66005792 77.25 -21.66005792 77.25 -16.31640625 77.25 C-16.31720184 78.51676071 -16.31799744 79.78352142 -16.31881714 81.08866882 C-16.3224182 93.02209721 -16.29465794 104.95509464 -16.23612785 116.88838482 C-16.20704573 123.02359352 -16.18904528 129.15841928 -16.19628906 135.29370117 C-16.20287242 141.21378852 -16.18045278 147.13311847 -16.13785172 153.05304909 C-16.12670294 155.3124605 -16.12603619 157.57194856 -16.13598251 159.83136559 C-16.14812444 162.99478304 -16.12312837 166.15587784 -16.08935547 169.3190918 C-16.10768684 170.72279022 -16.10768684 170.72279022 -16.12638855 172.15484619 C-16.11769592 176.86292656 -16.11769592 176.86292656 -13.99518204 180.89557838 C-12.20632422 182.43360672 -12.20632422 182.43360672 -9.31640625 184.25 C-5.99851599 188.12087197 -5.79322684 191.75943742 -5.9765625 196.6875 C-6.63950357 201.68622804 -8.34100837 205.33967405 -11.9765625 208.85546875 C-17.43952547 212.86014591 -22.74416272 213.0847229 -29.31640625 212.25 C-33.53033266 211.56097589 -36.23865299 210.49577715 -39.0703125 207.22265625 C-41.22158897 204.10719322 -42.99243359 201.16301386 -44.26171875 197.5859375 C-45.47883569 194.89024887 -46.14993423 194.38652906 -48.81640625 193.25 C-49.51765625 192.93546875 -50.21890625 192.6209375 -50.94140625 192.296875 C-51.72515625 191.95140625 -52.50890625 191.6059375 -53.31640625 191.25 C-55.15389667 190.34169508 -56.98724895 189.42497159 -58.81640625 188.5 C-59.67234375 188.07203125 -60.52828125 187.6440625 -61.41015625 187.203125 C-62.03921875 186.88859375 -62.66828125 186.5740625 -63.31640625 186.25 C-63.31640625 185.59 -63.31640625 184.93 -63.31640625 184.25 C-63.97640625 184.188125 -64.63640625 184.12625 -65.31640625 184.0625 C-68.81247297 183.1156486 -71.18467529 181.49790521 -74.18359375 179.51953125 C-76.33452317 178.23921612 -78.39493396 177.38687204 -80.75390625 176.5625 C-84.31640625 175.25 -84.31640625 175.25 -85.31640625 173.25 C-87.22635977 172.54633292 -89.1384937 171.84787499 -91.0625 171.18359375 C-94.11092264 169.92090222 -96.62644539 168.10859738 -99.26171875 166.140625 C-102.31366243 164.81772926 -104.16090082 165.32309547 -107.31640625 166.25 C-109.85047801 168.04084245 -109.85047801 168.04084245 -112.12890625 170.375 C-116.6515785 174.65927838 -121.35450984 178.49187728 -126.31640625 182.25 C-129.87368318 184.80431636 -129.87368318 184.80431636 -132.31640625 188.25 C-132.52107259 190.22559868 -132.68189684 192.20588811 -132.81640625 194.1875 C-133.26884695 200.83676246 -134.24561403 203.73038085 -139.31640625 208.25 C-144.66569781 212.28926097 -148.8907896 212.87838888 -155.57421875 212.63671875 C-159.2326143 212.12079117 -160.90822003 211.03446532 -163.31640625 208.25 C-164.05890625 207.404375 -164.80140625 206.55875 -165.56640625 205.6875 C-168.23138277 201.97556842 -168.31640625 199.35403414 -168.31640625 194.9375 C-168.59527926 191.5280526 -168.75574845 189.83953288 -171.13671875 187.3359375 C-173.46813152 185.79483414 -175.81433562 184.49285861 -178.31640625 183.25 C-179.43015625 182.610625 -180.54390625 181.97125 -181.69140625 181.3125 C-182.52285156 180.86003906 -182.52285156 180.86003906 -183.37109375 180.3984375 C-184.93977785 179.47234689 -186.45499148 178.45603107 -187.94921875 177.4140625 C-193.52050421 173.4190928 -193.52050421 173.4190928 -200.06640625 172.125 C-204.7121675 173.73314813 -209.17196081 175.75096856 -213.67578125 177.71484375 C-219.11144641 180.07572597 -224.52419459 182.37331706 -230.12890625 184.3125 C-233.70639655 185.55570411 -236.77129259 187.03064321 -240.00390625 189 C-244.40693304 191.5565962 -247.26330804 191.93516586 -252.31640625 191.25 C-254.81640625 190.3125 -254.81640625 190.3125 -256.31640625 188.25 C-257.08324495 185.07042492 -257.10156602 182.42880656 -256.31640625 179.25 C-252.2958069 173.33813188 -244.66100452 170.8595391 -238.31640625 168.25 C-236.76759766 167.59837891 -236.76759766 167.59837891 -235.1875 166.93359375 C-233.14030602 166.07525835 -231.09088759 165.2222052 -229.0390625 164.375 C-225.78447525 163.03020642 -222.54984321 161.64481594 -219.31640625 160.25 C-218.18203125 159.775625 -217.04765625 159.30125 -215.87890625 158.8125 C-212.68781256 157.41289751 -209.59685278 155.91229993 -206.50390625 154.3125 C-204.70867603 153.44053104 -202.87586505 152.64634464 -201.03515625 151.875 C-197.16285802 150.23195661 -193.50198281 148.27136776 -189.81640625 146.25 C-186.11072838 144.2176076 -182.43750036 142.25644218 -178.53515625 140.625 C-175.24917371 139.33751966 -175.24917371 139.33751966 -172.31640625 137.25 C-170.99640625 137.25 -169.67640625 137.25 -168.31640625 137.25 C-168.31640625 136.59 -168.31640625 135.93 -168.31640625 135.25 C-167.77040771 134.96503662 -167.22440918 134.68007324 -166.66186523 134.38647461 C-152.48749351 126.94062102 -139.00562383 118.76375257 -125.70849609 109.85058594 C-123.75896798 108.5461252 -121.80262901 107.25488198 -119.8359375 105.9765625 C-105.60503623 96.6724974 -92.09708709 86.48143308 -79.00878906 75.64257812 C-76.76086092 73.79286922 -74.47757242 71.98962447 -72.19140625 70.1875 C-62.03488076 62.07591253 -52.32327072 53.4556541 -42.79736328 44.61767578 C-41.27837074 43.2148739 -39.75009743 41.82289203 -38.21875 40.43359375 C-32.71724501 35.43647269 -27.33629581 30.36172984 -22.15625 25.02734375 C-20.31640625 23.25 -20.31640625 23.25 -17.31640625 21.25 C-16.77191821 18.36889622 -16.77191821 18.36889622 -16.56640625 15.0625 C-15.80075177 9.30095001 -14.65179408 6.15006586 -10.1640625 2.41796875 C-6.77040989 0.27272112 -3.8592618 0.41651392 0 0 Z " fill="#791FAE" transform="translate(452.31640625,210.75)"/>
<path d="M0 0 C7.81460853 -0.71475078 14.8314017 0.41832591 22.375 2.3125 C23.23061523 2.52543701 24.08623047 2.73837402 24.96777344 2.95776367 C29.62649116 4.18266155 33.76018843 5.64531637 38 8 C38 8.66 38 9.32 38 10 C38.66 10.185625 39.32 10.37125 40 10.5625 C48.28036414 14.53017448 52.60106478 20.65583286 56 29 C59.04205354 38.12616062 57.36467936 49.22455248 54 58 C53.43201379 59.70651712 52.8693083 61.41480307 52.3125 63.125 C51.87655299 64.41719164 51.43966502 65.70906867 51 67 C50.34 67 49.68 67 49 67 C48.855625 67.78375 48.71125 68.5675 48.5625 69.375 C48 72 48 72 47 74 C46.34 74 45.68 74 45 74 C44.63068359 75.06154297 44.63068359 75.06154297 44.25390625 76.14453125 C40.50729229 84.67653999 33.25667233 92.03616831 26.98828125 98.82421875 C25.39293179 100.57001374 23.90064268 102.33288102 22.4375 104.1875 C19.89430199 107.12195924 17.17787478 109.51426939 14.2265625 112.0234375 C11.76553431 114.20813972 9.4849599 116.51919191 7.1875 118.875 C2.09919965 124.00976885 -3.32723882 128.52896849 -9 133 C-10.09405363 133.87331768 -11.18779224 134.74703011 -12.28125 135.62109375 C-15.82926033 138.44654864 -19.40696064 141.23209482 -23 144 C-23.52916016 144.40879395 -24.05832031 144.81758789 -24.60351562 145.23876953 C-75.15206303 184 -75.15206303 184 -86 184 C-86 184.66 -86 185.32 -86 186 C-86.98226563 186.40605469 -87.96453125 186.81210937 -88.9765625 187.23046875 C-93.22151258 189.05201973 -97.29652748 191.14770177 -101.375 193.3125 C-102.50470215 193.90853027 -102.50470215 193.90853027 -103.65722656 194.51660156 C-107.51315619 196.57721303 -111.18898608 198.70169078 -114.75 201.25 C-119.15114897 204.35315386 -123.92676136 206.0467241 -128.984375 207.82421875 C-131.95370656 208.87829902 -131.95370656 208.87829902 -134.265625 210.39453125 C-137.49503706 212.29065747 -140.80468375 213.57591538 -144.28857422 214.93359375 C-148.75515631 216.69030459 -153.15450965 218.60207028 -157.5625 220.5 C-158.44357422 220.87769531 -159.32464844 221.25539063 -160.23242188 221.64453125 C-164.40310593 223.4359247 -168.55989786 225.24967246 -172.6953125 227.12109375 C-177.65085652 229.33341954 -182.71880464 231.02776173 -187.86328125 232.75390625 C-190.73666412 233.89538712 -192.58063086 235.14411641 -195 237 C-196.90234375 237.5546875 -196.90234375 237.5546875 -198.9375 237.875 C-202.895388 238.65105647 -206.4427539 239.87710156 -210.1875 241.375 C-214.74725221 243.19040775 -219.26623704 244.70466553 -224 246 C-228.46814643 247.22482084 -232.71275522 248.62214211 -237 250.375 C-264.34683713 261.15596464 -295.18745559 267.08611298 -324.19921875 271.5078125 C-326.5314978 271.91766907 -328.79821062 272.41553608 -331.1015625 272.95703125 C-336.58654031 274.19298641 -342.10984383 274.8871784 -347.6875 275.5625 C-349.16766602 275.75102539 -349.16766602 275.75102539 -350.67773438 275.94335938 C-364.40975415 277.63878005 -378.03740118 278.18655754 -391.85913086 278.18530273 C-394.56184418 278.18749947 -397.26415468 278.20576113 -399.96679688 278.22460938 C-423.28946756 278.30060988 -423.28946756 278.30060988 -433.953125 273.7890625 C-437.43291272 272.44761762 -441.06293939 271.63768764 -444.6796875 270.74609375 C-447 270 -447 270 -449 268 C-449.99 267.649375 -450.98 267.29875 -452 266.9375 C-459.61711694 263.82358427 -467.1475942 256.25779278 -471.046875 249.0703125 C-474.2662428 240.16339493 -474.68955896 229.0790303 -471.0859375 220.21875 C-464.4009787 206.56027304 -454.95077998 195.45301725 -444 185 C-443.34 185.33 -442.68 185.66 -442 186 C-442.79664063 187.02738281 -443.59328125 188.05476562 -444.4140625 189.11328125 C-456.32230729 204.61876923 -463.81051281 216.79378293 -462 237 C-461.11891775 240.08616917 -459.88537008 242.41839849 -458 245 C-457.236875 246.0725 -456.47375 247.145 -455.6875 248.25 C-450.33259819 253.72943441 -443.91860339 255.93620187 -436.75 258.125 C-435.96753906 258.37636719 -435.18507813 258.62773437 -434.37890625 258.88671875 C-422.4993393 262.58818251 -411.05086965 263.40176833 -398.6875 263.375 C-397.87350739 263.37545319 -397.05951477 263.37590637 -396.22085571 263.37637329 C-383.13330109 263.35524819 -370.20015678 262.56152809 -357.1875 261.1875 C-356.38339691 261.10481873 -355.57929382 261.02213745 -354.75082397 260.93695068 C-346.49173435 260.06781858 -338.81722701 258.95114827 -331 256 C-329.62996822 255.81317041 -328.25403615 255.66325539 -326.875 255.5625 C-322.2395409 255.15769107 -317.95017897 253.97160698 -313.47827148 252.71850586 C-307.6765892 251.12088 -301.82556458 249.86085789 -295.9375 248.625 C-285.37350691 246.38560412 -274.99096778 243.66831971 -264.6015625 240.73193359 C-262.04993376 240.01404855 -259.49470443 239.31101847 -256.9375 238.61328125 C-247.06518939 235.93452978 -247.06518939 235.93452978 -237.328125 232.80859375 C-234.74578352 231.91170669 -232.14823225 231.06475257 -229.55004883 230.21508789 C-223.88398619 228.35470398 -218.30515602 226.37824294 -212.79296875 224.09765625 C-209.04423501 222.62437767 -205.24247323 221.31980017 -201.4375 220 C-196.25265566 218.19379733 -191.17410643 216.31997212 -186.1875 214.01171875 C-183.3736175 212.7102981 -180.53656463 211.47249528 -177.6875 210.25 C-176.70136719 209.82203125 -175.71523438 209.3940625 -174.69921875 208.953125 C-172 208 -172 208 -168 208 C-168 207.34 -168 206.68 -168 206 C-166.08717875 205.15787744 -164.16957527 204.32661136 -162.25 203.5 C-161.18265625 203.0359375 -160.1153125 202.571875 -159.015625 202.09375 C-156 201 -156 201 -152 201 C-152 200.34 -152 199.68 -152 199 C-148.62902617 197.50178941 -146.79557881 197 -143 197 C-142.67 196.01 -142.34 195.02 -142 194 C-139.69 193.67 -137.38 193.34 -135 193 C-135 192.34 -135 191.68 -135 191 C-134.34217529 190.65855957 -133.68435059 190.31711914 -133.0065918 189.96533203 C-131.02865962 188.93843794 -129.05089158 187.91122766 -127.07324219 186.88378906 C-124.80472154 185.70536227 -122.53583754 184.52763469 -120.26660156 183.35058594 C-114.92445783 180.57617127 -109.5895688 177.79130665 -104.28515625 174.9453125 C-103.42897705 174.48753418 -102.57279785 174.02975586 -101.69067383 173.55810547 C-100.1003636 172.70576154 -98.51280382 171.84825948 -96.9284668 170.98486328 C-93.29710493 169.04272618 -90.15526886 167.49077979 -86 167 C-86 166.34 -86 165.68 -86 165 C-85.11699219 164.50371094 -84.23398437 164.00742187 -83.32421875 163.49609375 C-75.73582973 159.21000997 -68.29174997 154.77905235 -61 150 C-60.17145508 149.46318604 -60.17145508 149.46318604 -59.32617188 148.91552734 C-49.86789236 142.78218089 -40.80220977 136.22901157 -31.83984375 129.39453125 C-30.16348469 128.12391514 -28.47667112 126.87000849 -26.78125 125.625 C-19.23427329 120.06406979 -12.07328201 114.14350455 -5 108 C-4.18144531 107.29488281 -3.36289062 106.58976562 -2.51953125 105.86328125 C10.51888923 94.3973336 22.24956793 82.38481634 32 68 C32.63808594 67.08863281 33.27617188 66.17726563 33.93359375 65.23828125 C36.46815652 61.56103791 38.40583058 58.18551477 40 54 C40.42152344 53.07960938 40.42152344 53.07960938 40.8515625 52.140625 C44.08834968 44.22847857 44.77703763 33.53678854 42.15625 25.37109375 C39.2282008 20.31625206 34.59430241 16.51025352 30 13 C29.39414062 12.5359375 28.78828125 12.071875 28.1640625 11.59375 C19.941327 5.90375581 9.65668359 3.96407124 0 2 C0 1.34 0 0.68 0 0 Z " fill="#5DACE7" transform="translate(560,248)"/>
<path d="M0 0 C18.81 0 37.62 0 57 0 C57.60163214 23.72658899 57.60163214 23.72658899 57.73242188 33.89453125 C57.82186887 40.81540895 57.92728537 47.73329129 58.1315918 54.65185547 C58.29541355 60.23484092 58.38442555 65.81461399 58.42315865 71.39981842 C58.45073159 73.52280506 58.50458513 75.64562877 58.58595085 77.7672348 C59.18116106 93.94074805 59.18116106 93.94074805 55.48836136 99.12019348 C51.5123848 103.25975427 47.04060305 106.29530041 42 109 C41.34 109 40.68 109 40 109 C40 109.66 40 110.32 40 111 C38.09480998 112.60981172 36.19744338 114.09503268 34.1875 115.5625 C33.64029297 115.97435547 33.09308594 116.38621094 32.52929688 116.81054688 C30.03006899 118.66149019 27.97037715 120.00987428 25 121 C25 121.66 25 122.32 25 123 C23.453125 124.19140625 23.453125 124.19140625 21.25 125.5625 C16.19692348 128.8057583 11.45543693 132.39111514 6.69921875 136.046875 C4 138 4 138 0 140 C0 93.8 0 47.6 0 0 Z " fill="#791BB1" transform="translate(331,154)"/>
<path d="M0 0 C16.83 0 33.66 0 51 0 C51.40108809 24.46637369 51.40108809 24.46637369 51.48828125 34.8984375 C51.54805631 42.0163835 51.61874965 49.13304287 51.75439453 56.25 C51.86307971 61.98838248 51.92284721 67.72538559 51.94877243 73.46471786 C51.96724564 75.65377399 52.0033224 77.8427548 52.05730057 80.0312233 C52.46396497 97.20234303 52.46396497 97.20234303 48.88299561 101.59954834 C46.26601452 103.19377328 43.91517392 104.09114472 41 105 C39.33072511 105.99564005 37.66359283 106.9948947 36 108 C35.34 108 34.68 108 34 108 C34 108.66 34 109.32 34 110 C32.9275 110.433125 31.855 110.86625 30.75 111.3125 C28.57484519 112.23726642 26.94244146 113.04456145 25.0625 114.5 C22.61261061 116.28173774 20.05307883 117.05322845 17.21484375 118.046875 C13.9261307 119.46212365 11.15544352 121.49239906 8.2734375 123.59765625 C6 125 6 125 0 127 C0 85.09 0 43.18 0 0 Z " fill="#781AB0" transform="translate(264,207)"/>
<path d="M0 0 C17.16 0 34.32 0 52 0 C52 28.71 52 57.42 52 87 C46.72 89.31 41.44 91.62 36 94 C30.99093757 96.73122623 30.99093757 96.73122623 25.99609375 99.48828125 C21.81203628 101.59940281 17.54904044 102.921785 13 104 C13 104.66 13 105.32 13 106 C11.58521865 106.64995297 10.16808513 107.29478722 8.75 107.9375 C7.56664062 108.47697266 7.56664062 108.47697266 6.359375 109.02734375 C4 110 4 110 0 111 C0 74.37 0 37.74 0 0 Z " fill="#771AAE" transform="translate(195,256)"/>
<path d="M0 0 C-1.66359441 3.76354146 -4.05439856 6.89540946 -6.5625 10.125 C-7.00505127 10.69758545 -7.44760254 11.2701709 -7.90356445 11.86010742 C-11.39237765 16.32511679 -15.07889756 20.56890994 -18.921875 24.734375 C-20.81818331 26.8017788 -22.63029606 28.91750093 -24.4375 31.0625 C-36.26790471 44.55991628 -51.4658854 56.10458318 -67 65 C-68.35544922 65.84691406 -68.35544922 65.84691406 -69.73828125 66.7109375 C-72 68 -72 68 -74 68 C-74 68.66 -74 69.32 -74 70 C-80.625 73 -80.625 73 -84 73 C-84 73.66 -84 74.32 -84 75 C-85.19882812 75.45439453 -85.19882812 75.45439453 -86.421875 75.91796875 C-91.8215251 77.97769443 -97.1664046 80.06743083 -102.4375 82.4375 C-114.54463539 87.53184725 -127.93731451 90.9265466 -140.953125 92.67578125 C-143.05915481 92.90383708 -143.05915481 92.90383708 -145 94 C-147.59143905 94.31045526 -150.18371732 94.50973912 -152.78515625 94.71875 C-154.97070668 94.7665741 -154.97070668 94.7665741 -156 96 C-163.90258706 97.40937858 -171.93501122 97.2384394 -179.9375 97.25 C-180.67144989 97.25233643 -181.40539978 97.25467285 -182.16159058 97.25708008 C-193.03002082 97.27016436 -203.42130884 96.71331315 -214 94 C-212.45019662 90.90039325 -210.1323858 90.36237327 -207 89 C-204.41128937 88.32528287 -201.86482035 87.72722574 -199.25 87.1875 C-190.76638897 85.30851127 -182.65820697 82.69264323 -174.45654297 79.84716797 C-169.91939208 78.28247769 -165.36510527 76.76899579 -160.8125 75.25 C-159.93948242 74.95633545 -159.06646484 74.6626709 -158.16699219 74.36010742 C-150.83017203 71.9038491 -143.55367253 69.87385072 -135.96606445 68.3503418 C-126.46223978 66.42673452 -117.71205811 64.1151609 -108.86328125 60.13671875 C-106 59 -106 59 -102 59 C-102 58.34 -102 57.68 -102 57 C-101.33097656 56.75507813 -100.66195312 56.51015625 -99.97265625 56.2578125 C-88.54715782 51.81030304 -77.86665608 45.62065002 -67.9375 38.4375 C-61.96108786 34.11500157 -55.49152193 30.6888329 -49.04150391 27.13623047 C-47.05087773 26.02831678 -45.07591236 24.89727483 -43.10546875 23.75390625 C-42.48704102 23.39546631 -41.86861328 23.03702637 -41.23144531 22.66772461 C-39.54779671 21.68910959 -37.86564204 20.70792561 -36.18359375 19.7265625 C-33 18 -33 18 -29.3828125 16.47265625 C-26.34955149 15.15217195 -24.06236065 13.78936285 -21.4375 11.8125 C-17.25592731 8.79712863 -12.96770177 6.12341669 -8.5 3.5625 C-7.88825928 3.20841064 -7.27651855 2.85432129 -6.64624023 2.48950195 C-2.25122403 0 -2.25122403 0 0 0 Z " fill="#7722AC" transform="translate(510,423)"/>
<path d="M0 0 C0.34268523 4.05988055 0.61513729 8.12154465 0.875 12.1875 C1.02195312 13.91323242 1.02195312 13.91323242 1.171875 15.67382812 C1.66711061 24.21664248 1.66711061 24.21664248 -1.48828125 27.921875 C-2.64356962 28.63978486 -3.81575941 29.33092601 -5 30 C-6.31414924 30.97656501 -7.61708024 31.96835456 -8.91015625 32.97265625 C-10.29304382 34.00425106 -11.67717653 35.03417866 -13.0625 36.0625 C-14.44979559 37.09427694 -15.83652743 38.12681236 -17.22265625 39.16015625 C-17.88023926 39.64484375 -18.53782227 40.12953125 -19.21533203 40.62890625 C-21.17512689 42.09062177 -21.17512689 42.09062177 -23.49609375 44.31640625 C-26.89702635 46.60314876 -30.01459717 46.84725522 -34 46.875 C-34.74459473 46.88128418 -35.48918945 46.88756836 -36.25634766 46.89404297 C-44.90798596 46.52577002 -49.94654853 41.68093138 -56 36 C-56.99 35.34 -57.98 34.68 -59 34 C-57.71708803 30.1512641 -56.54382857 29.84895404 -53 28 C-51.42605469 27.33871094 -51.42605469 27.33871094 -49.8203125 26.6640625 C-45.76706321 24.94013277 -41.88668594 22.94338502 -38 20.875 C-37.26378418 20.48393066 -36.52756836 20.09286133 -35.76904297 19.68994141 C-25.25199858 14.04912476 -15.09398609 7.84461798 -5.171875 1.21484375 C-3 0 -3 0 0 0 Z " fill="#F1EEF5" transform="translate(337,339)"/>
<path d="M0 0 C0.66 0.33 1.32 0.66 2 1 C1.47043701 1.69561035 1.47043701 1.69561035 0.93017578 2.40527344 C-0.67494074 4.51763 -2.27500618 6.63376104 -3.875 8.75 C-4.43058594 9.47960937 -4.98617187 10.20921875 -5.55859375 10.9609375 C-6.09355469 11.66992188 -6.62851563 12.37890625 -7.1796875 13.109375 C-7.67194824 13.75874023 -8.16420898 14.40810547 -8.67138672 15.07714844 C-10.06274141 16.98335487 -10.06274141 16.98335487 -11.05517578 19.20019531 C-12 21 -12 21 -13.9375 21.6875 C-14.618125 21.790625 -15.29875 21.89375 -16 22 C-16.99 22.33 -17.98 22.66 -19 23 C-15.02836944 14.05337959 -7.00103597 6.65766091 0 0 Z " fill="#6CB2E9" transform="translate(116,433)"/>
<path d="M0 0 C7.36259293 -0.22424141 13.87049629 0.09879901 21 2 C21 2.33 21 2.66 21 3 C19.02 3.33 17.04 3.66 15 4 C16.32 4.66 17.64 5.32 19 6 C18.01 6.495 18.01 6.495 17 7 C15.09549293 6.2983395 13.19307544 5.58973017 11.30859375 4.8359375 C7.62695397 3.50282259 3.83540158 2.75465077 0 2 C0 1.34 0 0.68 0 0 Z " fill="#92C7ED" transform="translate(560,248)"/>
<path d="M0 0 C0.33 0.99 0.66 1.98 1 3 C-1.71670762 5.80402557 -4.45039324 8.59089468 -7.1875 11.375 C-7.95642578 12.1690625 -8.72535156 12.963125 -9.51757812 13.78125 C-10.26845703 14.54179687 -11.01933594 15.30234375 -11.79296875 16.0859375 C-12.4789917 16.7876709 -13.16501465 17.4894043 -13.87182617 18.21240234 C-16.15129502 20.12708296 -18.19444793 21.05267073 -21 22 C-16.61557474 16.74825074 -11.99157907 11.86777527 -7.125 7.0625 C-6.43664062 6.37865234 -5.74828125 5.69480469 -5.0390625 4.99023438 C-3.36166489 3.32448536 -1.68196209 1.6611378 0 0 Z " fill="#7BBBEB" transform="translate(579,333)"/>
<path d="M0 0 C0.66 0.33 1.32 0.66 2 1 C-14.83007929 16.79162759 -14.83007929 16.79162759 -20.79296875 17.18359375 C-21.88544922 17.09271484 -21.88544922 17.09271484 -23 17 C-22.41283203 16.72599365 -21.82566406 16.4519873 -21.22070312 16.16967773 C-19.07165547 15.03774201 -17.34941314 13.81410622 -15.46875 12.28515625 C-14.82292969 11.76373047 -14.17710937 11.24230469 -13.51171875 10.70507812 C-12.84785156 10.16302734 -12.18398438 9.62097656 -11.5 9.0625 C-10.17749757 7.99037424 -8.85459254 6.91874487 -7.53125 5.84765625 C-6.61085938 5.10153076 -6.61085938 5.10153076 -5.671875 4.34033203 C-3.81266886 2.84981776 -1.92268263 1.40767836 0 0 Z " fill="#9147BD" transform="translate(330,369)"/>
<path d="M0 0 C3.12750195 3.67357372 3.45600247 5.91635754 3.29296875 10.61328125 C2.8177616 14.48463546 1.67334914 17.46737403 0 21 C-0.99 21.66 -1.98 22.32 -3 23 C-2.68289063 22.42507812 -2.36578125 21.85015625 -2.0390625 21.2578125 C0.90055701 14.87021823 0.12929993 6.88162951 0 0 Z " fill="#9D64C3" transform="translate(469,219)"/>
<path d="M0 0 C0 3.5090104 -0.97622453 4.65325693 -3.22265625 7.23828125 C-6.85198739 10.83570618 -10.94675234 13.89906878 -15 17 C-15.66 16.67 -16.32 16.34 -17 16 C-12.35344118 11.24222036 -7.61171109 6.68207665 -2.56640625 2.34765625 C-1.68751602 1.59150381 -0.81982149 0.81982149 0 0 Z " fill="#8C3EBA" transform="translate(422,244)"/>
<path d="M0 0 C0.66 0.33 1.32 0.66 2 1 C0.57391198 3.00907998 -0.86466032 5.00669514 -2.3125 7 C-2.71662109 7.57234375 -3.12074219 8.1446875 -3.53710938 8.734375 C-4.61900525 10.21208644 -5.80455549 11.61254109 -7 13 C-7.99 13 -8.98 13 -10 13 C-10 10 -10 10 -7.8125 7.51953125 C-6.884375 6.62621094 -5.95625 5.73289062 -5 4.8125 C-4.071875 3.91144531 -3.14375 3.01039063 -2.1875 2.08203125 C-1.1046875 1.05142578 -1.1046875 1.05142578 0 0 Z " fill="#82BCEC" transform="translate(116,433)"/>
<path d="M0 0 C0.66 0.33 1.32 0.66 2 1 C-3.94 6.94 -9.88 12.88 -16 19 C-16.66 18.67 -17.32 18.34 -18 18 C-14.24011823 13.39414483 -10.36303633 9.42876079 -5.8359375 5.578125 C-3.7854109 3.81554469 -1.87227771 1.95028928 0 0 Z " fill="#DBCBEB" transform="translate(199,141)"/>
<path d="M0 0 C3.3125 -0.1875 3.3125 -0.1875 7 0 C8.5 1.375 8.5 1.375 10 3 C11.19625 3.33 12.3925 3.66 13.625 4 C14.73875 4.33 15.8525 4.66 17 5 C17.33 5.99 17.66 6.98 18 8 C11.79522136 6.06375702 5.89174281 3.74390859 0 1 C0 0.67 0 0.34 0 0 Z " fill="#8E4DB6" transform="translate(399,108)"/>
<path d="M0 0 C0.66 0.33 1.32 0.66 2 1 C-6.60757813 9.99203572 -6.60757813 9.99203572 -11 12 C-11.99 12 -12.98 12 -14 12 C-9.38465781 7.93521893 -4.74414188 3.91391705 0 0 Z " fill="#D6C7E7" transform="translate(339,381)"/>
<path d="M0 0 C-1.40972096 4.22916288 -4.15324493 5.91060462 -8 8 C-10.9375 8.3125 -10.9375 8.3125 -13 8 C-10.83676753 5.68757908 -8.62352196 3.9843604 -5.9375 2.3125 C-5.24527344 1.87550781 -4.55304688 1.43851562 -3.83984375 0.98828125 C-2 0 -2 0 0 0 Z " fill="#8B3FB8" transform="translate(322,325)"/>
<path d="M0 0 C-0.99 0.66 -1.98 1.32 -3 2 C0.3 2.66 3.6 3.32 7 4 C7 4.33 7 4.66 7 5 C2.1666528 5.08333357 -2.23692563 4.95261487 -7 4 C-7 3.01 -7 2.02 -7 1 C-4.53721199 -0.231394 -2.7204945 -0.07159196 0 0 Z " fill="#C3ACDE" transform="translate(300,514)"/>
<path d="M0 0 C0 3.15548393 -0.5690573 4.76554751 -1.8125 7.625 C-2.14894531 8.42164063 -2.48539063 9.21828125 -2.83203125 10.0390625 C-4 12 -4 12 -7 13 C-5.58832253 7.73829306 -3.25149768 4.27828642 0 0 Z " fill="#904BBC" transform="translate(142,173)"/>
<path d="M0 0 C0.66 0.33 1.32 0.66 2 1 C0.61714856 2.49131037 -0.78185739 3.96765185 -2.1875 5.4375 C-2.96480469 6.26121094 -3.74210937 7.08492188 -4.54296875 7.93359375 C-7.1461801 10.12294002 -8.66227956 10.67393495 -12 11 C-8.19588166 7.08060535 -4.18423892 3.50897269 0 0 Z " fill="#D4C5E3" transform="translate(384,301)"/>
<path d="M0 0 C-1.35513665 4.06540996 -3.30796918 4.97300269 -7 7 C-9.19921875 6.609375 -9.19921875 6.609375 -11 6 C-9.54550599 4.9944239 -8.08627557 3.99569565 -6.625 3 C-5.40683594 2.1646875 -5.40683594 2.1646875 -4.1640625 1.3125 C-2 0 -2 0 0 0 Z " fill="#DECFEB" transform="translate(328,344)"/>
<path d="M0 0 C0.33 0 0.66 0 1 0 C1.4269252 3.42895476 1.60451035 6.58629451 1 10 C-0.99292241 12.55733402 -3.26483851 14.28354662 -6 16 C-6.66 15.67 -7.32 15.34 -8 15 C-7.50628906 14.67128906 -7.01257813 14.34257812 -6.50390625 14.00390625 C-2.44909356 11.01979813 -2.44909356 11.01979813 -0.3125 6.59765625 C-0.08839516 4.3811193 0.03463886 2.22678356 0 0 Z " fill="#9043BB" transform="translate(436,223)"/>
<path d="M0 0 C0 2 0 2 -1.25 3.5625 C-3.24425152 5.20063517 -4.47783957 5.55491286 -7 6 C-7.9075 6.185625 -8.815 6.37125 -9.75 6.5625 C-10.4925 6.706875 -11.235 6.85125 -12 7 C-10.67368911 4.34737821 -9.14656892 3.78900251 -6.5625 2.375 C-5.75941406 1.92898438 -4.95632813 1.48296875 -4.12890625 1.0234375 C-2 0 -2 0 0 0 Z " fill="#D1BBE1" transform="translate(312,308)"/>
<path d="M0 0 C1.60379341 -0.05416188 3.20811406 -0.09286638 4.8125 -0.125 C5.70582031 -0.14820313 6.59914063 -0.17140625 7.51953125 -0.1953125 C10 0 10 0 13 2 C11.02 2 9.04 2 7 2 C7 2.66 7 3.32 7 4 C4.97954558 3.39816251 2.97888961 2.72693904 1 2 C0.67 1.34 0.34 0.68 0 0 Z " fill="#6DB5E7" transform="translate(574,251)"/>
<path d="M0 0 C0.66 0.33 1.32 0.66 2 1 C-1.49087093 5.0042343 -3.64951939 6.62671065 -9 7 C-6.03716687 4.61327331 -3.05729491 2.2646629 0 0 Z " fill="#8F43BB" transform="translate(441,462)"/>
<path d="M0 0 C0.66 0.33 1.32 0.66 2 1 C-5.11389522 7.51936219 -5.11389522 7.51936219 -10 9 C-6.83047153 5.73991357 -3.60062011 2.77762123 0 0 Z " fill="#D5C1E4" transform="translate(344,284)"/>
<path d="M0 0 C0.66 0.33 1.32 0.66 2 1 C-1.96 4.465 -1.96 4.465 -6 8 C-6.66 7.34 -7.32 6.68 -8 6 C-5.36 4.02 -2.72 2.04 0 0 Z " fill="#9145BE" transform="translate(342,310)"/>
<path d="M0 0 C0.66 0.33 1.32 0.66 2 1 C1.38125 1.5775 0.7625 2.155 0.125 2.75 C-1.81347053 4.80249821 -2.90014249 6.43366582 -4 9 C-4.33 7.02 -4.66 5.04 -5 3 C-2.625 1.4375 -2.625 1.4375 0 0 Z " fill="#D7C3E7" transform="translate(357,322)"/>
<path d="M0 0 C0.99 0.33 1.98 0.66 3 1 C0.36 2.98 -2.28 4.96 -5 7 C-4 3 -4 3 -2.125 1.1875 C-1.42375 0.795625 -0.7225 0.40375 0 0 Z " fill="#7E2FAD" transform="translate(413,275)"/>
<path d="M0 0 C1.65 0.33 3.3 0.66 5 1 C5 1.66 5 2.32 5 3 C0.56923077 5.09230769 0.56923077 5.09230769 -2.3125 4.625 C-2.869375 4.41875 -3.42625 4.2125 -4 4 C-2.02 3.67 -0.04 3.34 2 3 C2 2.34 2 1.68 2 1 C1.34 0.67 0.68 0.34 0 0 Z " fill="#9C65C5" transform="translate(259,485)"/>
<path d="M0 0 C0.99 0.33 1.98 0.66 3 1 C-2.14285714 5.42857143 -2.14285714 5.42857143 -6 6 C-4 4 -2 2 0 0 Z " fill="#863EB4" transform="translate(196,116)"/>
<path d="M0 0 C-3.53411321 2.12046792 -6.94393835 2.53199289 -11 3 C-7.68381684 -0.31618316 -4.50821267 -1.6697084 0 0 Z " fill="#995AC3" transform="translate(250,89)"/>
<path d="M0 0 C-0.66 1.32 -1.32 2.64 -2 4 C-2.66 4 -3.32 4 -4 4 C-4 4.66 -4 5.32 -4 6 C-4.99 6 -5.98 6 -7 6 C-5.81636731 2.44910192 -3.99368042 0 0 0 Z " fill="#7E2CAF" transform="translate(360,271)"/>
<path d="M0 0 C1.32 0.33 2.64 0.66 4 1 C-1.2734375 4.22265625 -1.2734375 4.22265625 -3 5 C-3.66 4.67 -4.32 4.34 -5 4 C-4.01 3.01 -3.02 2.02 -2 1 C-1.34 1.33 -0.68 1.66 0 2 C0 1.34 0 0.68 0 0 Z " fill="#863AB3" transform="translate(227,349)"/>
<path d="M0 0 C-0.5775 0.268125 -1.155 0.53625 -1.75 0.8125 C-4.0325868 2.01719859 -5.9737942 3.40798115 -8 5 C-8.66 4.67 -9.32 4.34 -10 4 C-7.16124653 -0.25813021 -4.8137938 -0.13010254 0 0 Z " fill="#873CB5" transform="translate(298,316)"/>
</svg>
